<svg xmlns="http://www.w3.org/2000/svg" xmlns:xlink="http://www.w3.org/1999/xlink" width="500" zoomAndPan="magnify" viewBox="0 0 375 374.999991" height="500" preserveAspectRatio="xMidYMid meet" version="1.0"><defs><g/></defs><rect x="-37.5" width="450" fill="#ffffff" y="-37.499999" height="449.999989" fill-opacity="1"/><rect x="-37.5" width="450" fill="#ffffff" y="-37.499999" height="449.999989" fill-opacity="1"/><rect x="-37.5" width="450" fill="#272727" y="-37.499999" height="449.999989" fill-opacity="1"/><g fill="#ece6db" fill-opacity="1"><g transform="translate(98.328234, 240.197397)"><g><path d="M 8.742188 -72.722656 C 8.742188 -35.558594 27.542969 -4.808594 61.789062 -4.808594 C 80.734375 -4.808594 94.289062 -23.753906 94.289062 -42.410156 C 94.289062 -74.617188 55.523438 -96.765625 55.523438 -124.019531 C 55.523438 -127.371094 56.398438 -132.035156 59.894531 -133.492188 L 59.460938 -134.367188 C 55.960938 -134.367188 48.527344 -126.058594 48.527344 -114.109375 C 48.527344 -82.777344 86.128906 -68.058594 86.128906 -31.769531 C 86.128906 -15.449219 72.429688 -6.265625 62.082031 -6.265625 C 31.769531 -6.265625 22.152344 -43.71875 22.152344 -72.429688 C 22.152344 -114.984375 43.71875 -146.460938 73.886719 -146.460938 C 104.054688 -146.460938 125.621094 -114.984375 125.621094 -72.429688 C 125.621094 -34.683594 111.484375 -15.15625 74.761719 7.285156 C 67.328125 11.804688 63.683594 17.195312 63.683594 17.195312 L 64.707031 18.363281 C 67.910156 15.59375 71.699219 14.136719 75.488281 14.136719 C 98.371094 14.136719 113.089844 41.242188 138.15625 41.242188 C 152.292969 41.242188 167.011719 32.5 167.011719 19.675781 C 167.011719 18.652344 166.574219 17.195312 165.699219 16.613281 C 163.511719 23.609375 156.664062 29 148.355469 29 C 112.652344 29 96.765625 12.386719 76.800781 12.386719 C 73.011719 12.386719 70.097656 13.554688 67.183594 15.15625 C 72.574219 9.910156 80.589844 6.996094 88.167969 2.914062 C 111.195312 -9.472656 138.445312 -27.835938 138.445312 -72.722656 C 138.445312 -116.441406 109.882812 -148.503906 73.59375 -148.503906 C 37.308594 -148.503906 8.742188 -116.441406 8.742188 -72.722656 Z M 8.742188 -72.722656 "/></g></g></g><g fill="#ece6db" fill-opacity="1"><g transform="translate(208.83768, 248.24953)"><g><path d="M 0.960938 -7.984375 C 0.960938 -3.902344 3.023438 -0.527344 6.78125 -0.527344 C 8.863281 -0.527344 10.351562 -2.609375 10.351562 -4.65625 C 10.351562 -8.191406 6.09375 -10.621094 6.09375 -13.613281 C 6.09375 -13.980469 6.191406 -14.492188 6.574219 -14.652344 L 6.527344 -14.75 C 6.144531 -14.75 5.328125 -13.835938 5.328125 -12.527344 C 5.328125 -9.085938 9.453125 -7.472656 9.453125 -3.488281 C 9.453125 -1.695312 7.949219 -0.6875 6.816406 -0.6875 C 3.488281 -0.6875 2.429688 -4.800781 2.429688 -7.949219 C 2.429688 -12.621094 4.800781 -16.078125 8.109375 -16.078125 C 11.421875 -16.078125 13.789062 -12.621094 13.789062 -7.949219 C 13.789062 -3.808594 12.238281 -1.664062 8.207031 0.800781 C 7.390625 1.296875 6.992188 1.886719 6.992188 1.886719 L 7.101562 2.015625 C 7.453125 1.710938 7.871094 1.550781 8.285156 1.550781 C 10.796875 1.550781 12.414062 4.527344 15.164062 4.527344 C 16.71875 4.527344 18.332031 3.566406 18.332031 2.160156 C 18.332031 2.046875 18.285156 1.886719 18.1875 1.824219 C 17.949219 2.589844 17.199219 3.183594 16.285156 3.183594 C 12.367188 3.183594 10.621094 1.359375 8.429688 1.359375 C 8.015625 1.359375 7.695312 1.488281 7.375 1.664062 C 7.964844 1.085938 8.847656 0.769531 9.679688 0.320312 C 12.207031 -1.039062 15.199219 -3.054688 15.199219 -7.984375 C 15.199219 -12.78125 12.0625 -16.300781 8.078125 -16.300781 C 4.09375 -16.300781 0.960938 -12.78125 0.960938 -7.984375 Z M 0.960938 -7.984375 "/></g></g></g><g fill="#ece6db" fill-opacity="1"><g transform="translate(225.05778, 248.24953)"><g><path d="M 0.320312 -11.167969 C 1.695312 -11.167969 1.792969 -10.03125 1.792969 -6.878906 L 1.792969 -3.246094 C 1.792969 0.113281 4.640625 0.320312 6.0625 0.320312 C 6.976562 0.320312 8.972656 0 10.285156 0 L 12.109375 0 L 12.109375 -0.160156 C 10.734375 -0.160156 10.636719 -1.296875 10.636719 -4.449219 L 10.636719 -11.328125 L 7.789062 -11.328125 L 7.789062 -11.167969 C 9.167969 -11.167969 9.261719 -10.03125 9.261719 -6.878906 L 9.261719 -0.367188 C 8.496094 -0.0976562 7.597656 0.0976562 6.78125 0.0976562 C 5.695312 0.0976562 3.183594 0 3.183594 -3.582031 C 3.183594 -3.582031 3.167969 -10.847656 3.167969 -11.328125 L 0.320312 -11.328125 Z M 0.320312 -11.167969 "/></g></g></g><g fill="#ece6db" fill-opacity="1"><g transform="translate(237.486795, 248.24953)"><g><path d="M 4.800781 0 L 4.800781 -0.160156 C 3.421875 -0.160156 3.328125 -1.296875 3.328125 -4.449219 L 3.328125 -11.328125 L 0.480469 -11.328125 L 0.480469 -11.167969 C 1.855469 -11.167969 1.953125 -10.03125 1.953125 -6.878906 L 1.953125 -4.449219 C 1.953125 -1.296875 1.855469 -0.160156 0.480469 -0.160156 L 0.480469 0 Z M 1.488281 -13.421875 C 1.488281 -12.828125 1.96875 -12.351562 2.558594 -12.351562 C 3.152344 -12.351562 3.632812 -12.828125 3.632812 -13.421875 C 3.632812 -14.015625 3.152344 -14.492188 2.558594 -14.492188 C 1.96875 -14.492188 1.488281 -14.015625 1.488281 -13.421875 Z M 1.488281 -13.421875 "/></g></g></g><g fill="#ece6db" fill-opacity="1"><g transform="translate(242.605566, 248.24953)"><g><path d="M 6.445312 0.320312 C 8.832031 0.320312 10.574219 -0.976562 11.40625 -2.878906 L 11.183594 -2.976562 C 10.398438 -0.910156 8.285156 -0.222656 7.023438 -0.222656 C 4.078125 -0.222656 2.367188 -2.734375 2.335938 -5.710938 C 2.304688 -7.964844 3.167969 -11.453125 6.414062 -11.453125 C 8.09375 -11.453125 9.933594 -10.398438 10.8125 -8.636719 L 10.878906 -8.636719 L 10.878906 -10.527344 C 10.878906 -10.527344 9.152344 -11.644531 6.445312 -11.644531 C 3.007812 -11.644531 0.960938 -8.957031 0.960938 -5.664062 C 0.960938 -2.367188 3.007812 0.320312 6.445312 0.320312 Z M 6.445312 0.320312 "/></g></g></g><g fill="#ece6db" fill-opacity="1"><g transform="translate(254.330746, 248.24953)"><g><path d="M 4.800781 0 L 4.800781 -0.160156 C 3.421875 -0.160156 3.328125 -1.296875 3.328125 -4.449219 L 3.328125 -15.996094 L 0.480469 -15.996094 L 0.480469 -15.835938 C 1.855469 -15.835938 1.953125 -14.703125 1.953125 -11.550781 L 1.953125 -4.449219 C 1.953125 -1.296875 1.855469 -0.160156 0.480469 -0.160156 L 0.480469 0 Z M 8.398438 -10.429688 C 8.398438 -8 3.742188 -8.511719 3.742188 -7.039062 C 3.742188 -6.0625 5.648438 -6.335938 6.957031 -3.96875 C 7.261719 -3.421875 7.453125 -2.640625 7.710938 -1.710938 C 7.917969 -0.976562 8.125 0 8.878906 0 L 10.71875 0 L 10.71875 -0.160156 C 9.933594 -0.160156 9.566406 -0.464844 9.34375 -0.992188 C 8.894531 -2.0625 8.910156 -2.945312 8.253906 -4 C 6.671875 -6.542969 3.902344 -6.09375 3.902344 -7.039062 C 3.902344 -8.175781 9.839844 -7.742188 9.839844 -10.910156 C 9.839844 -11.117188 9.789062 -11.328125 9.566406 -11.328125 L 7.648438 -11.328125 L 7.648438 -11.167969 C 8.191406 -11.167969 8.398438 -10.847656 8.398438 -10.429688 Z M 8.398438 -10.429688 "/></g></g></g><g fill="#ece6db" fill-opacity="1"><g transform="translate(265.528057, 248.24953)"><g/></g></g><g fill="#ece6db" fill-opacity="1"><g transform="translate(271.126712, 248.24953)"><g><path d="M 0.960938 -12.15625 C 0.960938 -6.910156 11.261719 -8.269531 11.261719 -3.457031 C 11.261719 -1.679688 9.421875 0.03125 7.085938 0.03125 C 3.28125 0.03125 1.183594 -3.777344 1.183594 -3.777344 L 1.023438 -3.777344 L 1.023438 -1.632812 C 2.207031 -0.75 4.078125 0.320312 6.191406 0.320312 C 9.886719 0.320312 12.191406 -1.886719 12.191406 -4.113281 C 12.191406 -9.710938 2.078125 -8.160156 2.078125 -12.542969 C 2.078125 -14.316406 3.710938 -16.125 6.6875 -16.125 C 10.109375 -16.125 11.085938 -13.4375 11.085938 -13.4375 L 11.246094 -13.4375 L 11.246094 -15.582031 C 10.015625 -15.996094 8.65625 -16.316406 6.6875 -16.316406 C 2.992188 -16.316406 0.960938 -14.382812 0.960938 -12.15625 Z M 0.960938 -12.15625 "/></g></g></g><g fill="#ece6db" fill-opacity="1"><g transform="translate(284.27555, 248.24953)"><g><path d="M 6.445312 0.320312 C 8.832031 0.320312 10.574219 -0.976562 11.40625 -2.878906 L 11.183594 -2.976562 C 10.398438 -0.910156 8.285156 -0.222656 7.023438 -0.222656 C 4.078125 -0.222656 2.367188 -2.734375 2.335938 -5.710938 C 2.304688 -7.964844 3.167969 -11.453125 6.414062 -11.453125 C 10.992188 -11.453125 10.925781 -5.296875 8.558594 -5.296875 C 7.277344 -5.296875 6.03125 -7.421875 4.351562 -7.421875 C 3.246094 -7.421875 2.671875 -6.800781 2.671875 -6.144531 L 2.734375 -6.128906 C 2.785156 -6.253906 3.136719 -6.527344 3.519531 -6.527344 C 5.085938 -6.527344 5.871094 -5.101562 8.445312 -5.101562 C 10.285156 -5.101562 11.328125 -6.191406 11.34375 -8 C 11.359375 -9.613281 9.886719 -11.644531 6.445312 -11.644531 C 3.007812 -11.644531 0.960938 -8.957031 0.960938 -5.664062 C 0.960938 -2.367188 3.007812 0.320312 6.445312 0.320312 Z M 6.445312 0.320312 "/></g></g></g><g fill="#ece6db" fill-opacity="1"><g transform="translate(296.640581, 248.24953)"><g><path d="M 4.800781 0 L 4.800781 -0.160156 C 3.421875 -0.160156 3.328125 -1.296875 3.328125 -4.449219 L 3.328125 -10.957031 C 4.238281 -11.246094 6.398438 -11.421875 7.390625 -11.421875 C 8.542969 -11.421875 9.101562 -10.8125 9.101562 -10.078125 C 9.101562 -9.421875 8.6875 -8.894531 8.238281 -8.878906 C 8.238281 -8.429688 8.671875 -8.144531 9.117188 -8.144531 C 10.03125 -8.144531 10.496094 -8.847656 10.496094 -9.695312 C 10.496094 -10.925781 9.4375 -11.644531 8.015625 -11.644531 C 6.238281 -11.644531 4.175781 -11.328125 2.335938 -11.328125 L 0.480469 -11.328125 L 0.480469 -11.167969 C 1.855469 -11.167969 1.953125 -10.03125 1.953125 -6.878906 L 1.953125 -4.449219 C 1.953125 -1.296875 1.855469 -0.160156 0.480469 -0.160156 L 0.480469 0 Z M 4.800781 0 "/></g></g></g><g fill="#ece6db" fill-opacity="1"><g transform="translate(307.453988, 248.24953)"><g><path d="M 0 -11.167969 L 0.382812 -11.167969 C 1.535156 -11.167969 1.917969 -9.855469 2.222656 -8.878906 C 2.894531 -6.71875 3.390625 -4.992188 4.238281 -2.351562 C 5.199219 0.625 6.640625 0.320312 6.640625 0.320312 C 7.679688 -2.945312 8.460938 -5.535156 9.246094 -8.046875 C 9.550781 -9.023438 10.335938 -11.167969 11.4375 -11.167969 L 11.710938 -11.167969 L 11.710938 -11.328125 L 7.503906 -11.328125 L 7.503906 -11.167969 L 7.855469 -11.167969 C 9.648438 -11.167969 9.308594 -8.972656 8.941406 -7.695312 C 8.351562 -5.664062 7.664062 -3.519531 6.847656 -0.960938 C 6.382812 -1.023438 5.96875 -1.457031 5.679688 -2.351562 C 4.6875 -5.457031 4.160156 -7.292969 3.3125 -10.046875 C 3.121094 -10.671875 2.6875 -11.328125 1.96875 -11.328125 L 0 -11.328125 Z M 0 -11.167969 "/></g></g></g><g fill="#ece6db" fill-opacity="1"><g transform="translate(319.16317, 248.24953)"><g><path d="M 6.445312 0.320312 C 8.832031 0.320312 10.574219 -0.976562 11.40625 -2.878906 L 11.183594 -2.976562 C 10.398438 -0.910156 8.285156 -0.222656 7.023438 -0.222656 C 4.078125 -0.222656 2.367188 -2.734375 2.335938 -5.710938 C 2.304688 -7.964844 3.167969 -11.453125 6.414062 -11.453125 C 10.992188 -11.453125 10.925781 -5.296875 8.558594 -5.296875 C 7.277344 -5.296875 6.03125 -7.421875 4.351562 -7.421875 C 3.246094 -7.421875 2.671875 -6.800781 2.671875 -6.144531 L 2.734375 -6.128906 C 2.785156 -6.253906 3.136719 -6.527344 3.519531 -6.527344 C 5.085938 -6.527344 5.871094 -5.101562 8.445312 -5.101562 C 10.285156 -5.101562 11.328125 -6.191406 11.34375 -8 C 11.359375 -9.613281 9.886719 -11.644531 6.445312 -11.644531 C 3.007812 -11.644531 0.960938 -8.957031 0.960938 -5.664062 C 0.960938 -2.367188 3.007812 0.320312 6.445312 0.320312 Z M 6.445312 0.320312 "/></g></g></g></svg>